<svg version="1.1" xmlns="http://www.w3.org/2000/svg" style="display: block;" viewBox="0 0 2048 2048" width="1024" height="1024" preserveAspectRatio="none">
<defs>
	<linearGradient id="Gradient1" gradientUnits="userSpaceOnUse" x1="316.126" y1="771.974" x2="281.64" y2="780.5">
		<stop class="stop0" offset="0" stop-opacity="1" stop-color="rgb(82,103,117)"/>
		<stop class="stop1" offset="1" stop-opacity="1" stop-color="rgb(69,118,160)"/>
	</linearGradient>
</defs>
<path transform="translate(0,0)" fill="rgb(243, 244, 246)" d="M 1559.38 146.54 C 1575.23 137.39 1611.13 113.862 1629.46 114.722 C 1633.62 114.917 1638.83 122.346 1641.77 125.77 C 1645.7 123.838 1653.88 119.407 1657.27 121.548 C 1681.85 137.061 1703.71 200.956 1720.02 219.912 C 1725.29 221.687 1730.1 223.274 1735.46 224.795 C 1749.62 239.591 1777.07 298.582 1786.17 319.492 C 1795.14 340.092 1839.77 461.101 1838.75 475.97 C 1838.51 479.462 1836.52 481.648 1833.89 483.719 C 1830.25 486.584 1826.2 489.05 1822.29 491.542 C 1846.25 547.734 1866.26 595.564 1883.87 654.571 C 1940.47 844.232 1954.02 1074.52 1878.84 1260.75 C 1829.26 1385.33 1745.06 1493.12 1636.18 1571.37 C 1612.03 1588.56 1582.64 1605.06 1556.9 1620.09 C 1525.56 1638.39 1494.44 1655.9 1460.99 1670.09 C 1313.28 1731.8 1147.14 1732.52 998.894 1672.09 C 974.621 1662.25 951.053 1650.75 928.359 1637.68 C 910.527 1627.27 894.446 1616.09 875.973 1606.61 C 876.861 1618.78 878.517 1630.89 880.931 1642.85 C 903.007 1654.31 927.382 1672.89 919.264 1706.84 C 918.61 1709.58 914.726 1711.09 912.431 1711.53 C 885.892 1716.86 744.434 1717.31 727.378 1709.75 C 722.596 1704.98 723.14 1699.59 722.725 1692.83 C 709.918 1682.51 688.611 1664.81 675.638 1656.28 C 655.371 1642.97 613.334 1633.43 588.702 1626.86 C 587.749 1636.35 586.607 1661.33 579.898 1667.97 C 574.184 1673.63 566.647 1670.96 566.013 1681.89 C 565.407 1692.33 564.994 1700.64 562.513 1710.79 C 535.237 1713.29 383.797 1719.55 371.021 1708.52 C 367.481 1705.46 366.403 1700.15 366.283 1695.69 C 365.967 1683.93 369.702 1672.34 378.098 1663.93 C 384.932 1657.1 394.057 1652.8 400.744 1645.83 C 415.641 1630.31 412.242 1599.72 415.352 1579.56 C 403.155 1570.22 391.048 1562.07 378.324 1553.44 C 347.409 1579.94 324.117 1613.79 320.209 1655.23 C 316.686 1692.6 340.56 1714.54 368.833 1734.55 C 454.225 1794.99 564.082 1809.31 665.912 1815.85 C 717.214 1818.87 772.726 1818.15 823.987 1818 C 824.021 1811.27 822.705 1798.74 827.262 1793.43 C 838.248 1780.64 1004.17 1757.23 1031.88 1754.9 C 1065.3 1752.33 1098.83 1751.38 1132.35 1752.08 C 1133.22 1752.1 1134.1 1752.12 1134.97 1752.16 C 1135.26 1756.76 1135.45 1761.78 1136.1 1766.31 C 1172.93 1764.42 1243.44 1758.34 1277.32 1765.86 C 1280.43 1773.74 1280.55 1775.02 1281.55 1783.66 C 1289.88 1785.77 1294.54 1786.29 1301.47 1791.3 C 1304.36 1809.72 1308.49 1861.92 1299.91 1881.7 C 1298.65 1884.59 1287.75 1887.76 1284.02 1888.91 C 1283.95 1894.88 1284.7 1901.29 1280.86 1905.8 C 1261.67 1915.75 1202.16 1911.2 1179.39 1912.45 C 1166.56 1913.15 1155.4 1914.48 1142.57 1917.34 C 1141.62 1920.64 1140.62 1923.87 1139.9 1927.23 C 1107.13 1931.66 1073.7 1931.79 1040.7 1931.17 C 1011.76 1930.62 842.977 1918.61 831.063 1908.53 C 825.293 1903.65 825.89 1890.98 825.962 1884 C 787.082 1882.68 746.29 1883.61 708.305 1882.69 C 586.629 1879.77 384.006 1854.41 296.07 1759.86 C 269.635 1731.21 255.52 1693.32 256.769 1654.35 C 258.437 1603.05 280.56 1554.55 318.206 1519.66 C 320.56 1517.51 322.967 1515.5 325.354 1513.39 C 316.621 1503.23 305.207 1493.25 298.105 1484.76 C 294.041 1503.36 291.588 1522.62 274.573 1533.66 L 273.433 1534.38 C 246.182 1520.05 217.804 1447.81 208.545 1417.9 C 200.825 1392.95 181.671 1298.43 191.888 1277.42 C 192.99 1275.16 194.56 1273.3 197.036 1272.48 C 201.79 1270.93 207.577 1273.5 211.565 1275.96 C 226.102 1284.94 242.301 1301.43 256.604 1312.42 C 293.344 1340.65 329.423 1360.08 372.03 1377.84 C 381.309 1381.71 402.945 1389.78 404.251 1401.37 C 404.604 1404.51 403.146 1407.42 401.025 1409.62 C 391.868 1419.13 367.502 1425.53 354.852 1430.96 C 382.417 1461.07 401.586 1457.28 430.639 1431.64 C 437.295 1378.23 441.474 1323.18 447.521 1269.51 L 456.892 1178.14 C 459.033 1157.95 463.175 1122.81 463.408 1103.2 C 413.914 1077.22 378.137 1047.23 361.495 992.005 C 357.276 978.002 352.267 960.145 351.174 945.83 C 335.508 949.943 319.513 953.19 303.356 954.741 C 293.513 955.685 283.451 955.198 273.698 955.659 C 263.097 930.646 262.675 926.73 259.763 899.619 C 288.25 877.804 314.622 877.316 346.087 864.376 C 345.836 857.817 345.758 850.977 344.808 844.503 C 317.171 843.406 296.593 846.169 276.145 823.843 C 230.899 774.443 289.223 694.307 323.737 655.654 C 327.064 615.332 329.223 585.799 362.204 557.961 C 373.983 548.019 395.61 536.129 410.679 534.526 C 439.163 531.498 449.899 514.754 473.053 504.081 C 501.478 490.978 537.198 484.476 564.414 468.64 C 566.834 467.259 568.178 452.619 568.501 448.942 C 568.727 446.148 568.866 443.348 568.919 440.546 C 543.432 394.061 529.049 349.935 536.921 296.119 C 526.118 276.036 512.077 259.013 501.543 239.384 C 496.037 229.124 500.56 219.738 510.014 214.794 C 523.118 207.941 538.881 209.307 552.019 203.667 C 556.959 198.835 567.674 182.703 574.487 175.937 C 601.393 149.219 643.49 141.667 678.713 153.883 C 705.46 163.159 722.23 183.198 737.727 205.436 C 748.45 207.069 782.043 209.883 786.533 218.664 C 797.241 239.6 759.354 276.975 753.111 297.162 C 749.725 308.11 753.059 320.821 752.367 332.082 C 752.377 373.638 739.091 405.883 717.186 440.454 C 719.19 452.912 720.49 459.973 726.5 471.226 C 754.531 481.241 795.919 495.971 822.344 508.558 L 823.332 507.816 C 833.221 500.295 842.607 491.403 852.286 483.551 C 1011.08 354.714 1233.83 326.854 1422.06 403.473 C 1444.84 412.746 1467.59 425.877 1489.97 436.329 C 1518.36 449.218 1544.03 459.932 1571.82 474.594 C 1643.37 513.086 1706.05 566.154 1755.82 630.371 C 1812.3 704.649 1849.9 791.532 1865.39 883.553 C 1865.94 887.035 1865.44 887.933 1867.4 890.082 C 1868.63 886.728 1867.98 884.843 1867.42 881.304 C 1857.08 783.913 1833.69 688.356 1797.87 597.203 C 1790.98 579.418 1774.17 538.834 1764.88 522.079 C 1757.48 528.115 1754.89 528.429 1745.84 530.595 C 1724.89 513.803 1709.35 488.216 1693.38 466.569 C 1659.82 421.108 1607.35 351.86 1589.55 298.359 L 1597.86 290.637 C 1579.85 261.776 1561.83 232.331 1548.34 201.029 C 1541.31 184.7 1541.49 181.035 1556.19 172.281 C 1554.66 160.62 1553.24 156.703 1559.38 146.54 z M 1651.76 134.309 C 1650.39 136.45 1648.62 138.236 1649.81 141.018 C 1656.96 157.746 1665.38 167.529 1671.18 185.348 C 1667.5 190.641 1664.02 193.774 1658.92 197.701 C 1664.24 210.511 1675.28 232.872 1682.73 244.423 L 1689.67 241.045 C 1695.97 237.245 1702.89 232.847 1709.45 229.696 C 1702.6 217.818 1660.32 137.343 1652.83 134.572 C 1652.48 134.445 1652.11 134.396 1651.76 134.309 z M 964.372 1381.26 C 954.538 1407.52 947.254 1422.4 930.269 1445.01 C 957.084 1469.87 972.475 1477.97 1005.08 1494.2 C 1077.53 1531 1158.05 1549.02 1239.27 1546.61 C 1369.07 1541.71 1488.55 1481.52 1579.36 1389.32 C 1652.45 1315.11 1682.98 1260.26 1700.15 1157.99 C 1730.04 979.903 1670.64 802.459 1539.16 677.818 C 1451.88 595.072 1317.12 537.944 1194.33 543.298 C 1192.5 543.378 1190.67 543.469 1188.84 543.571 C 1145.35 544.318 1093.45 555.847 1052.31 569.469 C 1040.53 573.368 1029.16 578.22 1017.43 582.467 C 1015.49 595.502 1011.22 618.224 1008.07 631.113 C 1010.79 634.22 1013.57 637.274 1016.4 640.274 C 1008.99 698.654 969.761 849.656 890.543 842.98 C 853.95 839.896 828.545 797.193 813.235 767.812 C 811.098 789.596 812.554 808.465 813.038 830.161 C 813.969 871.929 817.684 913.028 820.364 954.732 C 821.71 975.682 824.612 999.986 823.254 1020.99 C 823.038 1024.32 818.106 1030.46 815.938 1033.42 C 821.066 1063.25 823.206 1098.96 826.158 1129.54 L 842.085 1281.76 C 844.183 1300.98 849.867 1355.61 854.887 1372.13 C 887.906 1348.91 894.443 1317.35 912.643 1285.17 C 852.674 1299.56 834.978 1289.02 877.239 1238.99 C 898.735 1213.55 917.343 1173.09 931.217 1142.92 C 940.696 1120.57 947.488 1096.54 958.156 1074.84 C 960.009 1072.21 963.266 1070.25 966.276 1069.86 C 975.414 1068.59 982.602 1080.77 986.514 1087.62 C 1025.47 1155.77 1040.34 1232.07 1040.39 1309.97 C 1040.42 1358.49 1002.12 1320.65 988.411 1303.03 C 979.665 1328.04 972.861 1355.72 964.372 1381.26 z M 1561.48 185.378 C 1559.65 189.01 1558.94 189.988 1560.81 194.545 C 1567.51 210.879 1578.1 228.804 1587.04 244.269 C 1594.27 256.77 1602.8 273.054 1610.28 284.787 C 1616.28 281.812 1622.06 279.067 1627.76 275.547 L 1636.54 271.926 C 1630.23 260.003 1616.75 236.561 1609.11 225.551 C 1571.92 237.119 1582.28 190.057 1561.48 185.378 z M 406.34 847.012 C 413.852 843.713 420.018 841.444 427.781 838.719 L 445.053 833.527 C 441.322 817.419 431.955 768.32 418.509 760.63 C 409.427 778.986 410.925 823.216 406.34 847.012 z M 1608.7 153.745 C 1610.89 159.556 1618.4 177.346 1622.19 181.878 C 1620.01 184.023 1620.21 184.025 1617.36 185.046 C 1613.48 183.574 1613.84 182.73 1610.77 178.884 C 1606.48 172.665 1602.02 166.718 1597.5 160.657 C 1600.06 167.393 1607.47 183.094 1608.96 188.313 L 1607.21 190.539 C 1599.87 190.06 1596.91 176.255 1591.42 173.759 C 1587.97 179.844 1600.37 187.485 1597.24 196.683 C 1594.82 198.324 1594.84 198.097 1591.86 198.298 C 1588.24 191.986 1584.93 186.211 1580.95 180.123 C 1582.2 185.962 1585.41 195.373 1589.39 199.822 C 1592.69 205.751 1595.55 211.659 1598.55 217.741 C 1602.9 214.612 1608.43 209.644 1614 210.939 C 1625.4 218.627 1654.1 273.411 1659.07 287.355 C 1667.79 283.16 1676.23 278.385 1684.32 273.062 L 1683.54 271.966 C 1674.27 259.022 1643.74 209.196 1644.49 193.065 C 1644.66 189.405 1652.8 185.178 1656.22 183.099 C 1652.02 172.623 1642.92 155.89 1636.36 147.089 L 1635.14 147.563 C 1634.12 156.571 1645.24 163.325 1642.53 171.288 C 1638.82 172.369 1640.75 172.248 1636.53 170.893 C 1634.38 164.292 1624.96 154.078 1619.61 149.578 C 1624.83 160.228 1630.53 166.099 1632.74 176.466 L 1627.76 179.83 C 1620.37 171.117 1615.37 161.686 1608.7 153.745 z M 1628.81 690.608 C 1659.36 738.969 1693.95 781.289 1713.85 836.222 C 1718.26 848.384 1726.96 879.179 1734.96 887.556 C 1729.89 843.965 1716.08 806.962 1692.23 770.24 C 1682.48 755.229 1643.72 695.453 1628.81 690.608 z M 981.225 481.976 C 1000.44 469.287 1036.26 450.926 1052.61 438.477 C 1032.86 444.862 997.925 461.28 977.998 470.37 C 945.961 485.871 916.341 502.402 888.539 524.863 C 881.594 530.474 865.218 540.321 866.67 550.002 C 878.076 554.294 919.772 506.366 934.329 499.903 C 949.536 493.151 971.17 493.638 981.225 481.976 z M 1266.28 1600.64 L 1263.4 1601.31 L 1263.64 1602.39 C 1268.09 1603.08 1269.2 1603.08 1273.71 1602.78 C 1310.01 1603.38 1339.73 1602.26 1372.54 1584.29 C 1377.68 1581.48 1386.81 1579.25 1390.91 1574.82 L 1389.35 1574.48 C 1382.3 1577.94 1374.95 1578.96 1367.7 1581.41 C 1335.64 1592.21 1297.9 1592 1266.28 1600.64 z M 1610.96 1476.45 C 1660.88 1438.98 1735.45 1328.33 1759.97 1269.29 C 1769.82 1245.59 1778.15 1205.52 1782.2 1179.76 C 1782.82 1175.85 1783.56 1170.41 1782.22 1166.6 C 1768.69 1195.11 1760.81 1227.6 1747.87 1256.5 C 1716.05 1327.55 1671.94 1392.09 1624.91 1453.82 C 1622.04 1457.59 1610.44 1472.41 1610.96 1476.45 z M 1511.41 528.252 C 1504.98 514.212 1439.72 485.125 1421.89 478.49 C 1382.67 463.636 1341.64 454.117 1299.89 450.189 C 1292.99 449.476 1277.44 447.865 1271.08 448.388 L 1270.64 450.417 C 1277.09 452.864 1285.17 453.035 1292.25 454.152 C 1309.45 456.867 1325.83 459.439 1342.84 463.382 C 1391.69 475.199 1439.18 492.087 1484.53 513.773 C 1493.66 518.212 1502.42 523.678 1511.41 528.252 z M 462.252 924.019 C 447.174 928.036 427.815 931.997 412.35 934.55 C 418.143 970.357 424.208 987.205 446.894 1016.39 C 452.299 1022.28 459.319 1031.36 466.657 1033.52 L 469.338 1032.87 C 470.367 1029.58 468.396 1026.48 466.943 1023.54 C 463.729 1017.03 463.395 1009.55 463.428 1002.38 C 463.467 994.018 473.435 925.89 464.048 924.161 C 463.457 924.053 462.85 924.066 462.252 924.019 z M 1623.84 126.948 C 1612.4 132.903 1574.68 151.776 1569.11 161.848 L 1569.61 164.459 L 1571.4 165.235 C 1582.14 159.743 1621.71 140.106 1625.7 130.956 C 1625.14 127.835 1625.84 129.079 1623.84 126.948 z M 1717.94 671.884 C 1739.35 720.946 1762.77 768.636 1781.75 818.921 C 1785.8 829.665 1808.95 898.673 1813.68 901.41 C 1802.27 828.522 1780.14 763.371 1739.43 701.466 C 1734.5 693.985 1724.89 676.416 1717.94 671.884 z"/>
<path transform="translate(0,0)" fill="rgb(51, 65, 85)" d="M 970.41 1110.5 C 977.049 1115.16 982.414 1130.02 985.867 1137.61 C 1009.25 1189.01 1017.09 1244.13 1017.82 1300.2 C 1008.07 1290.03 977.057 1252.67 969.461 1282.29 C 966.725 1292.95 964.43 1304.44 961.855 1315.27 C 956.984 1336.09 950.279 1356.45 941.822 1376.09 C 915.74 1435.87 872.493 1487.35 821.316 1527.02 C 767.522 1568.71 744.793 1596.34 713.947 1655.94 C 659.312 1618.17 632.414 1611.15 567.593 1601.82 C 486.14 1590.09 401.015 1552.35 341.399 1495.22 C 326.205 1480.66 314.596 1462.37 295.763 1451.5 C 280.68 1451.49 273.451 1485.57 269.222 1497.32 C 262.868 1482.74 254.908 1469.28 247.946 1455.02 C 239.859 1438.46 234.301 1421.73 228.458 1404.32 C 217.325 1367.58 215.373 1347.18 212.109 1309.77 C 226.874 1318.54 242.716 1332.47 257.721 1342.2 C 289.74 1362.97 331.907 1386.95 367.098 1401.1 C 360.917 1403.39 354.099 1405.83 347.853 1407.76 C 299.873 1422.62 332.529 1445.22 357.464 1462.17 C 387.334 1482.49 419.811 1498.88 455.225 1508.43 C 494.791 1519.11 545.751 1525.96 583.583 1505.31 C 604.392 1493.42 609.601 1478.42 615.412 1457.03 C 623.337 1449 641.012 1437.81 651.203 1430.82 C 663.245 1422.69 674.894 1413.98 686.111 1404.74 C 692.697 1418.54 701.081 1433.19 713.016 1443.02 C 768.192 1488.48 850.19 1419.81 884.602 1378.39 C 891.683 1369.91 898.287 1361.04 904.386 1351.83 C 916.331 1333.48 939.291 1292.24 940.43 1270.21 C 941.216 1255 902.294 1262.58 892.311 1264.12 C 898.733 1247.76 917.57 1223.02 926.558 1206.84 C 943.665 1176.04 958.126 1143.47 970.41 1110.5 z"/>
<path transform="translate(0,0)" fill="rgb(251, 191, 36)" d="M 1033.47 515.526 C 1108.98 468.749 1168.8 455.02 1256.28 462.897 C 1286.89 465.589 1317.26 470.48 1347.16 477.532 C 1508.2 516.055 1647.09 617.483 1732.8 759.152 C 1820.09 901.239 1851.29 1079.74 1812.15 1242.35 C 1773.62 1399.49 1673.83 1534.7 1535.02 1617.84 C 1401.35 1698.79 1241.2 1723.92 1089.16 1687.79 C 1011.83 1669.12 939.053 1635.07 875.167 1587.66 C 874.226 1574.91 873.449 1561.46 872.235 1548.78 C 972.355 1640 1092.97 1687.53 1228.11 1679 C 1387.01 1668.98 1541.14 1607.12 1648.86 1488.59 C 1752.49 1375.36 1806.62 1225.44 1799.23 1072.13 C 1792.73 908.755 1721.53 754.668 1601.32 643.836 C 1489.78 542.451 1335.06 483.435 1183.77 490.333 C 1142.41 492.219 1101.64 499.446 1061.65 509.771 C 1054.96 511.498 1039.89 514.686 1034.23 517.491 L 1033.47 515.526 z"/>
<path transform="translate(0,0)" fill="rgb(251, 191, 36)" d="M 1181.85 503.429 C 1197.08 501.847 1224.8 502.676 1240.01 503.637 C 1337.93 510.252 1432.04 544.124 1511.72 601.426 C 1634.08 688.823 1716.43 821.52 1740.41 969.968 C 1767.06 1125.99 1730.96 1286.23 1639.97 1415.74 C 1623.45 1439.19 1605.36 1461.49 1585.81 1482.48 C 1537.78 1534.57 1502.01 1559.1 1432.67 1579.76 C 1417.52 1584.27 1401.29 1589.84 1385.69 1592.5 C 1394.55 1587.6 1405.82 1583.17 1415.52 1577.96 C 1442.84 1563.38 1468.92 1546.59 1493.52 1527.77 C 1563.39 1471.66 1615.57 1412.48 1656.5 1331.83 C 1795.81 1057.34 1699.65 715.867 1417.46 579.145 C 1317.9 531.775 1205.3 519.291 1097.79 543.703 C 1070.93 549.638 1047.59 557.297 1021.72 566.277 C 1020.05 554.884 1018.44 549.485 1013.89 538.94 C 1072.88 519.734 1120.32 507.173 1181.85 503.429 z"/>
<path transform="translate(0,0)" fill="rgb(51, 65, 85)" d="M 793.22 1030.47 L 793.802 1030.63 C 797.923 1035.46 803.154 1094.47 804.232 1104.92 L 821.014 1269.21 C 824.808 1308.75 828.048 1356.3 835.556 1394.9 C 810.667 1414.02 770.989 1446.7 736.587 1430.68 C 719.23 1422.59 712.194 1403.38 706.393 1386.35 C 716.783 1373.76 726.581 1360.7 735.755 1347.2 C 741.562 1336.14 747.793 1324.29 751.413 1312.35 C 763.398 1272.82 758.752 1225.49 739.584 1189.04 C 718.861 1149.63 680.825 1122.48 641.743 1103.23 C 633.676 1099.26 622.478 1093.25 614.106 1090.66 C 609.389 1071.31 604.563 1055.9 598.124 1037.02 C 619.99 1036.6 643.13 1037.93 665.705 1037.54 C 708.275 1036.56 750.802 1034.2 793.22 1030.47 z"/>
<path transform="translate(0,0)" fill="rgb(51, 65, 85)" d="M 789.487 750.947 L 791.169 752.141 C 794.089 775.879 792.064 808.005 793.202 832.315 C 795.866 889.23 798.042 951.423 805.351 1007.74 C 776.902 1008.57 748.495 1013.18 720.117 1014.5 C 677.451 1016.49 634.317 1016.05 591.585 1015.99 L 585.086 993.439 C 576.574 962.896 566.416 931.66 557.411 901.024 C 594.179 885.024 638.054 872.941 676.036 858.695 C 700.621 849.475 719.616 845.401 742.54 830.57 C 741.331 809.531 737.745 797.864 732.033 777.989 C 756.096 770.053 767.837 763.354 789.487 750.947 z"/>
<path transform="translate(0,0)" fill="rgb(251, 191, 36)" d="M 1808.01 498.906 L 1809.12 499.608 C 1883.63 637.238 1922.4 839.729 1917.9 995.381 C 1912.84 1170.75 1860.43 1326.47 1742.54 1458.73 C 1731.36 1471.26 1719.74 1484.25 1707.5 1495.74 C 1694.53 1507.91 1680.8 1519.25 1667.85 1531.47 L 1665.25 1532.37 C 1667 1528.33 1682.27 1513.48 1686.14 1509.04 C 1702.68 1490.09 1719.96 1470.08 1734.05 1449.28 C 1755.54 1417.33 1774.27 1383.61 1790.05 1348.49 C 1797.06 1332.85 1803 1314.75 1810.54 1299.65 C 1917.94 1084.36 1896.42 829.344 1816.25 609.06 C 1804.7 577.345 1790.58 546.559 1778.09 515.27 C 1787.74 509.67 1797.89 504.835 1808.01 498.906 z"/>
<path transform="translate(0,0)" fill="rgb(51, 65, 85)" d="M 484.301 1112.49 C 492.959 1116.35 506.114 1121.01 515.317 1124.62 C 522.994 1148.35 527.112 1170.51 533.524 1194.22 C 552.013 1262.57 565.496 1331.66 584.735 1399.83 C 553.256 1420.55 537.316 1435.97 515.272 1465.52 C 507.912 1475.95 505.042 1483.31 500.119 1495.02 C 481.08 1490.2 464.932 1487.24 446.491 1479.87 C 450.176 1466.12 451.518 1444.8 452.853 1430.01 L 459.442 1357.15 L 484.301 1112.49 z"/>
<path transform="translate(0,0)" fill="rgb(251, 191, 36)" d="M 334.716 1521.76 L 364.461 1547.11 C 313.865 1598.24 280.204 1669.25 338.609 1728.82 C 363.937 1754.65 401.097 1771.45 434.557 1784.15 C 559.152 1831.42 692.334 1831.08 823.934 1831.06 C 824.943 1839.93 829.532 1868.78 818.25 1870.97 C 750.502 1871.09 673.843 1870.92 606.913 1862.74 C 506.343 1850.44 377.462 1826.76 304.489 1749.98 C 240.872 1683.05 270.197 1577.11 334.716 1521.76 z"/>
<path transform="translate(0,0)" fill="rgb(51, 65, 85)" d="M 498.088 672.984 C 551.604 685.449 503.569 717.158 484.785 735.927 C 492.412 774.559 502.415 798.702 517.12 834.157 C 525.512 834.119 531.308 832.936 539.472 831.893 C 596.321 824.632 655.916 802.837 712.142 796.624 C 713.471 803.688 715.1 811.333 717.629 818.04 C 660.062 842.442 585.808 859.445 531.631 888.124 C 538.233 927.464 547.018 952.568 559.115 990.928 C 567.888 1021.35 577.565 1050.81 587.006 1080.99 C 567.164 1072.86 544.901 1067.74 524.806 1060.08 C 520.17 1037.76 513.361 1011.83 508.02 989.612 C 501.667 963.196 493.14 922.274 480.733 899.021 C 457.363 903.474 433.66 907.025 409.827 911.652 C 409.292 897.296 408.846 882.937 408.488 868.575 C 437.999 863.263 443.149 858.469 469.004 847.078 C 466.386 820.9 458.452 764.844 440.967 744.766 C 437.019 740.232 430.505 740.953 424.791 740.957 C 427.518 730.785 432.121 720.74 435.081 710.125 C 464.556 709.802 484.089 699.367 498.088 672.984 z"/>
<path transform="translate(0,0)" fill="rgb(251, 191, 36)" d="M 1239.3 408.402 C 1246.1 407.682 1260.47 407.838 1267.66 407.857 C 1331.4 408.601 1394.38 421.681 1453.14 446.374 C 1560.09 491.071 1649.58 577.818 1705.76 678.344 C 1714.48 693.966 1723.83 710.23 1730.59 726.76 C 1719.55 711.445 1708.48 695.428 1696.28 681.061 C 1662.36 641.128 1622.99 606.065 1585.68 569.394 C 1578.64 562.475 1571.96 555.459 1564.3 549.201 C 1489.34 488.676 1417.92 453.99 1321.03 440.699 C 1212.99 425.88 1088.44 455.372 1001.1 520.909 C 993.41 513.434 987.207 508.237 978.988 501.517 C 989.949 490.881 1011.52 478.053 1025.31 470.398 C 1093.82 432.351 1161.64 413.884 1239.3 408.402 z"/>
<path transform="translate(0,0)" fill="rgb(251, 191, 36)" d="M 1699.24 1398.71 L 1700.21 1399.43 C 1699.61 1403.22 1692.4 1412.6 1689.65 1416.53 C 1663.39 1454.2 1632.71 1488.6 1598.28 1518.98 C 1536.94 1573.47 1450.17 1624.09 1368.85 1639.39 C 1337.24 1645.34 1289.08 1645.79 1257.08 1643.78 C 1150.59 1637.11 1045.77 1595.37 959.761 1533.03 C 945.053 1522.37 918.292 1503.53 906.416 1490.16 C 904.732 1488.35 904.74 1488.15 903.59 1485.92 C 904.537 1476.81 912.584 1469.35 918.697 1462.72 C 938.612 1480.57 959.388 1497.45 980.951 1513.27 C 1092.63 1595.94 1232.78 1630.42 1370.07 1608.99 C 1451.88 1596.06 1528.84 1561.8 1593.2 1509.68 C 1628.09 1481.21 1672.59 1435.04 1699.24 1398.71 z"/>
<path transform="translate(0,0)" fill="rgb(251, 191, 36)" d="M 386.784 813.91 C 389.494 819.531 388.046 837.84 387.955 844.91 C 387.235 900.656 386.979 985.119 427.561 1027.82 C 492.105 1094.42 593.885 1089.64 667.308 1142.06 C 721.9 1181.03 752.738 1241 730.865 1307.45 C 705.495 1384.52 630.645 1411.09 574.797 1460.88 C 563.072 1471.33 554.773 1482.36 545.715 1495.06 L 526.236 1495.01 C 525.148 1493.58 525.074 1492.98 525.26 1491.09 C 528.646 1456.84 635.95 1391.88 664.49 1366.83 C 691.789 1342.87 713.702 1315.74 715.954 1278.17 C 717.838 1246.73 710.116 1216.2 690.512 1191.38 C 637.422 1124.17 539.416 1118.73 467.205 1081.95 C 446.426 1071.37 427.435 1057.56 411.974 1040.03 C 364.104 985.759 362.556 893.961 367.163 825.15 C 377.484 822.165 378.788 821.084 386.784 813.91 z"/>
<path transform="translate(0,0)" fill="rgb(251, 191, 36)" d="M 1088.92 1765.58 C 1100.23 1765.11 1111.55 1764.77 1122.87 1764.55 C 1124.53 1777.31 1124.96 1798.87 1125.16 1812.05 C 1117.66 1812.39 1111.89 1812.75 1104.47 1813.7 L 1097.78 1819.46 C 1092.58 1836.2 1095.79 1850.82 1098.35 1867.82 C 1109.91 1872.1 1114.32 1871.16 1126.95 1871.05 C 1126.95 1886.47 1127.7 1901.5 1127.31 1916.99 C 1104.77 1916.78 1080.19 1917.7 1057.49 1918.16 C 1036.42 1919.23 1015.6 1917.93 994.49 1917.13 C 991.317 1870.36 990.178 1820.61 988.89 1773.66 C 1023.62 1768.54 1053.91 1767.14 1088.92 1765.58 z"/>
<path transform="translate(0,0)" fill="rgb(15, 23, 42)" d="M 1031.89 1787.28 L 1078.91 1786.97 C 1079.69 1798.49 1083.42 1890.66 1081.53 1896.28 L 1078.12 1897.75 C 1062.4 1898.76 1047.67 1898.84 1031.94 1898.7 C 1030.24 1864.18 1029.77 1829.12 1029.43 1794.56 C 1029.41 1791.85 1030.58 1789.55 1031.89 1787.28 z"/>
<path transform="translate(0,0)" fill="rgb(251, 191, 36)" d="M 1046.53 1796.56 C 1054.05 1796.02 1062.45 1796.15 1070.06 1796.1 C 1070.19 1817.3 1072.25 1840.39 1072.1 1861.85 C 1072.04 1870.18 1073.31 1879.76 1072.14 1887.83 C 1069.76 1889.98 1070.37 1889.28 1066.32 1889.55 C 1057.92 1889.31 1049.52 1889.11 1041.11 1888.96 C 1040.2 1873.22 1037.12 1810.94 1040.1 1798.65 C 1042.17 1796.44 1042.67 1797.1 1046.53 1796.56 z"/>
<path transform="translate(0,0)" fill="rgb(251, 191, 36)" d="M 1840.81 1139.63 C 1840.69 1093.94 1840.9 1052.99 1835.24 1007.4 C 1833.71 976.984 1832.61 946.139 1828.32 915.98 C 1815.77 827.7 1785.24 736.342 1730 665.112 C 1702.05 629.072 1662.5 587.407 1631 553.354 C 1608.04 528.527 1570.24 496.63 1543.05 475.859 L 1543.51 474.972 L 1544.54 475.583 C 1554.01 481.143 1564.15 485.579 1573.68 490.899 C 1705.06 564.238 1805.45 691.673 1843.21 837.592 C 1867.98 933.293 1868.12 1053.17 1842.39 1148.77 C 1840.91 1146.34 1841.03 1142.63 1840.81 1139.63 z"/>
<path transform="translate(0,0)" fill="rgb(51, 65, 85)" d="M 930.422 645.762 C 956.515 652.821 967.302 653.534 993.977 656.469 C 980.884 702.161 959.362 790.009 916.359 815.67 C 907.487 820.964 893.514 822.76 883.465 819.282 C 861.933 811.827 849.749 787.586 840.015 768.82 C 833.588 754.601 827.029 740.442 820.337 726.345 C 846.451 702.323 863.462 684.22 885.657 655.998 L 891.949 667.84 C 885.934 684.846 876.68 700.703 871.345 717.955 C 869.535 723.806 870.691 728.198 876.571 730.869 C 894.723 731.32 925.353 661.854 930.422 645.762 z"/>
<path transform="translate(0,0)" fill="rgb(51, 65, 85)" d="M 792.116 518.688 C 837.75 536.598 845.045 548.72 862.382 594.348 C 821.585 642.757 797.825 677.958 742.383 710.522 C 736.827 713.865 730.414 717.242 724.688 720.414 C 717.044 686.223 709.955 674.277 681.496 654.897 C 721.89 636.505 735.478 615.795 751.538 575.146 C 753.425 570.369 758.42 552.703 760.615 549.776 C 767.864 540.11 782.895 527.198 792.116 518.688 z"/>
<path transform="translate(0,0)" fill="rgb(255, 255, 255)" d="M 671.936 314.865 C 675.447 317.054 679.884 320.68 683.472 323.193 C 699.664 334.536 714.171 337.306 733.606 339.357 C 731.768 349.751 729.887 360.074 727.471 370.352 C 714.99 423.452 681.476 465.839 621.948 450.503 C 574.065 427.081 565.144 388.682 556.38 340.024 C 576.922 337.836 597.68 339.637 618.33 336.526 C 638.787 333.445 654.129 324.51 671.936 314.865 z"/>
<path transform="translate(0,0)" fill="rgb(251, 191, 36)" d="M 903.057 569.712 C 908.134 572.824 917.55 587.157 920.156 592.837 C 909.135 609.619 894.407 624.831 881.239 640.002 C 842.068 685.134 798.176 738.085 740.68 759.967 C 715.174 769.674 688.132 773.239 661.103 769.301 C 568.976 755.877 571.135 680.527 514.637 655.877 C 499.157 649.123 482.919 649.626 467.403 655.887 C 437.213 668.068 420.993 691.875 408.645 720.841 C 401.142 727.495 393.875 720.757 387.669 715.553 C 399.675 692.14 409.058 673.189 428.763 654.75 C 447.71 637.02 473.388 629.704 498.979 630.634 C 544.445 632.286 570.566 679.396 598.216 708.815 C 620.116 732.115 644.496 745.193 676.707 745.339 C 703.678 745.461 716.901 740.286 740.735 728.908 C 790.287 705.252 826.14 663.478 859.608 621.257 C 873.488 603.747 886.821 585.356 903.057 569.712 z"/>
<path transform="translate(0,0)" fill="rgb(251, 191, 36)" d="M 1001.38 1507.49 C 1113.16 1563.48 1249.58 1576.4 1368.67 1536.91 C 1444.39 1511.84 1513.71 1470.5 1571.78 1415.81 C 1589.05 1399.74 1607.88 1376.49 1624.41 1362.87 C 1614.85 1378.35 1603.21 1393.02 1592.88 1407.75 C 1529.11 1498.63 1448.26 1549.21 1340.48 1574.59 C 1218.88 1603.22 1133.77 1592.88 1027.45 1527.11 C 1018.32 1521.48 1009.46 1515.42 1000.9 1508.95 L 1001.38 1507.49 z"/>
<path transform="translate(0,0)" fill="rgb(251, 191, 36)" d="M 1726.3 236.05 C 1737.96 244.194 1773.66 325.75 1780.71 343.728 C 1746.5 359.832 1700.37 387.792 1666.33 406.852 C 1662.04 399.905 1657.95 394.139 1653.18 387.49 C 1640.2 369.561 1614.19 323.726 1605.12 303.751 C 1617.21 297.597 1630.15 289.107 1641.59 281.78 C 1644.82 287.108 1649.16 295.613 1653.38 299.512 C 1662.75 303.32 1677.82 294.163 1685.94 289.497 C 1705.13 278.464 1699.34 271.443 1690.66 255.114 L 1726.3 236.05 z"/>
<path transform="translate(0,0)" fill="rgb(15, 23, 42)" d="M 1729.77 279.959 C 1737.39 286.757 1747.46 309.677 1751.28 319.076 C 1728.43 334.946 1689.3 355.784 1664.1 368.251 C 1653.41 355.597 1648.18 344.378 1641.43 329.166 C 1664.75 314.401 1705.26 292.546 1729.77 279.959 z"/>
<path transform="translate(0,0)" fill="rgb(251, 191, 36)" d="M 1726.73 290.866 C 1731.16 294.831 1737.65 309.727 1740.47 315.771 C 1729.5 324.169 1680.8 350.889 1666.68 357.189 C 1660.16 350.508 1656.41 340.821 1652.41 332.264 C 1676.54 319.687 1702.46 304.187 1726.73 290.866 z"/>
<path transform="translate(0,0)" fill="rgb(51, 65, 85)" d="M 544.628 1133.25 C 566.708 1140.67 588.552 1148.77 610.127 1157.56 C 630.002 1216.83 645.836 1277.86 666.024 1337.47 L 639.541 1359.71 C 629.505 1368.02 616.257 1377.86 605.52 1385.32 C 584.096 1301.57 563.796 1217.54 544.628 1133.25 z"/>
<path transform="translate(0,0)" fill="rgb(251, 191, 36)" d="M 835.974 514.498 C 856.168 489.369 938.658 440.174 969.528 426.206 C 1088.11 371.342 1222.07 359.359 1348.51 392.305 C 1369.61 397.963 1393.43 407.269 1414.03 415.053 L 1412.57 416.3 C 1392.18 409.318 1367 402.361 1344.87 399.748 C 1227.83 385.928 1089.23 403.665 981.856 452.985 C 944.304 470.234 889.683 509.849 857.698 534.008 C 849.899 525.85 845.05 521.149 835.974 514.498 z"/>
<path transform="translate(0,0)" fill="rgb(51, 65, 85)" d="M 615.571 220.412 C 623.047 219.629 636.031 219.964 643.78 219.888 C 685.371 219.48 723.596 225.225 764.21 233.82 C 756.341 248.692 747.158 262.607 738.846 277.303 C 716.163 274.644 694.043 271.203 671.242 269.339 C 636.458 266.089 585.372 272.752 551.239 277.875 C 542.611 261.728 532.674 247.858 523.037 232.393 C 554.364 228.243 583.994 223.156 615.571 220.412 z"/>
<path transform="translate(0,0)" fill="rgb(251, 191, 36)" d="M 884.633 1501.2 C 899.194 1514.62 909.542 1525.09 925.261 1538.02 C 968.899 1573.47 1018.55 1600.78 1071.84 1618.68 C 1086.65 1623.62 1101.55 1626.6 1116.17 1630.96 C 1167.45 1646.24 1214.96 1654.4 1268.26 1658.05 C 1269.87 1659.7 1269.55 1658.77 1269.93 1660.68 C 1200.5 1669.07 1142.83 1668.48 1074.73 1649.47 C 1015.18 1632.84 963.218 1603.8 914.491 1566.03 C 896.443 1552.04 879.957 1539.83 868.423 1519.54 C 873.871 1514.35 879.681 1507.07 884.633 1501.2 z"/>
<path transform="translate(0,0)" fill="rgb(51, 65, 85)" d="M 431.586 553.328 C 474.088 547.965 514.453 575.096 528.294 615.17 C 521.724 613.288 493.197 609.466 490.422 607.134 C 452.266 575.074 412.57 577.268 385.16 620.818 C 377.918 637.502 378.602 658.744 383.252 675.994 C 378.082 687.333 372.764 698.603 367.299 709.803 C 327.228 643.943 350.39 565.68 431.586 553.328 z"/>
<path transform="translate(0,0)" fill="rgb(51, 65, 85)" d="M 844.193 1538.79 C 851.251 1542.46 857.88 1620.85 859.427 1633.71 C 824.174 1637.22 789.063 1642.04 754.168 1648.16 L 740.609 1649.73 C 763.14 1603.26 805.392 1571.14 844.193 1538.79 z"/>
<path transform="translate(0,0)" fill="rgb(255, 255, 255)" d="M 950.261 512.663 C 961.623 512.137 981.73 528.832 987.604 538.438 C 1004.8 566.567 994.853 604.155 988.608 634.104 C 980.328 633.506 973.207 632.914 964.996 631.793 C 953.425 629.85 949.101 629.003 940.662 620.673 C 939.657 614.311 939.643 605.451 939.704 598.917 C 939.923 575.748 929.323 565.841 914.809 550.216 C 928.062 531.533 932.644 526.622 950.261 512.663 z"/>
<path transform="translate(0,0)" fill="rgb(51, 65, 85)" d="M 543.815 705.557 C 548.728 708.646 564.118 729.138 568.343 734.624 C 568.004 742.634 568.194 750.064 568.5 757.999 C 569.797 791.563 586.784 777.976 603.036 763.91 C 614.732 775.311 633.898 780.529 649.359 785.044 C 639.824 787.779 627.599 790.076 617.739 792.202 C 588.963 799.091 560.062 805.453 531.052 811.283 C 524.398 788.889 518 766.421 511.858 743.881 C 526.528 730.886 533.145 721.41 543.815 705.557 z"/>
<path transform="translate(0,0)" fill="rgb(255, 255, 255)" d="M 1214.88 1804.06 C 1228.63 1800.68 1254.32 1797.8 1267.79 1802.73 C 1264.22 1805.59 1243.64 1802.99 1234.57 1808.41 L 1234.5 1809.85 C 1240.67 1814.11 1258.7 1815.05 1267.89 1817.3 L 1269.25 1817.63 C 1261.98 1819.02 1235.8 1818.7 1233.77 1825.37 C 1241.53 1830.21 1257.98 1826.84 1264.66 1829.61 C 1264.19 1836.19 1238.87 1831.88 1233.5 1838.4 L 1234.07 1839.79 C 1243.49 1842.93 1253.98 1842.42 1263.18 1845.76 C 1261.62 1848.33 1239.64 1845.84 1233.54 1852.39 L 1234.34 1854.28 C 1242.16 1860.31 1261.16 1853.98 1264.78 1859.3 C 1255.95 1862.92 1240.45 1858.67 1234.75 1866.42 C 1234.56 1869.92 1234.74 1869.71 1236.55 1872.79 L 1236.46 1875.31 L 1217.16 1875.29 C 1216.39 1857.8 1216.26 1855.16 1197.53 1854.28 C 1168.28 1852.9 1139.13 1854.97 1109.98 1857.18 C 1109.31 1848.65 1107.77 1837.99 1110.3 1830.09 C 1115.61 1824.46 1167.86 1828.01 1181.04 1825.49 C 1195.83 1822.67 1198.9 1823.31 1214.37 1817.15 L 1214.88 1804.06 z"/>
<path transform="translate(0,0)" fill="rgb(251, 191, 36)" d="M 1747.94 885.499 C 1781.91 986.518 1798.74 1073.82 1764.44 1177.81 C 1756.26 1202.62 1747.06 1232.55 1735.52 1255.81 C 1734.93 1257 1734.33 1258.19 1733.72 1259.37 L 1732.96 1258.96 C 1764.29 1160.75 1766.62 1066.8 1756.9 965.092 C 1754.7 942.062 1752.86 908.419 1746.24 886.986 L 1747.94 885.499 z"/>
<path transform="translate(0,0)" fill="rgb(255, 255, 255)" d="M 589.93 458.567 C 593.138 460.527 596.413 462.376 599.749 464.11 C 621.975 475.446 647.122 479.897 671.154 472.055 C 693.354 464.811 700.791 453.046 705.702 483.708 L 698.669 497.851 L 695.551 506.59 C 656.271 519.586 637.321 518.528 597.343 508.446 C 584.193 489.908 583.649 479.724 589.93 458.567 z"/>
<path transform="translate(0,0)" fill="rgb(51, 65, 85)" d="M 434.401 1654.97 C 453.852 1657.16 469.59 1658.17 489.361 1661.8 C 503.411 1664.37 532.376 1670.95 545.583 1671.15 C 545.574 1678.57 545.187 1686.56 544.965 1694.02 L 503.131 1693.96 C 465.8 1693.96 425.393 1694.78 388.319 1693.62 C 388.949 1691.93 389.651 1690.26 390.424 1688.63 C 400.531 1667.63 414.507 1662.33 434.401 1654.97 z"/>
<path transform="translate(0,0)" fill="rgb(255, 255, 255)" d="M 341.768 714.684 C 354.581 724.69 365.615 729.967 379.922 737.296 C 406.451 750.886 377.031 788.252 365.446 804.489 C 365.035 804.582 364.624 804.675 364.213 804.768 C 338.213 805.111 315.539 794.48 316.563 765.962 C 317.406 742.486 327.018 729.339 341.768 714.684 z"/>
<path transform="translate(0,0)" fill="rgb(51, 65, 85)" d="M 837.164 1657.39 C 849.687 1656.19 861.71 1655.42 873.086 1661.96 C 880.437 1666.18 906.735 1681.51 898.467 1691.65 C 888.627 1695.15 823.779 1694.03 810.25 1693.99 L 745.018 1693.99 C 744.21 1686.18 744.205 1678.11 744.059 1670.25 C 772.547 1668.3 807.077 1660.75 837.164 1657.39 z"/>
<path transform="translate(0,0)" fill="rgb(51, 65, 85)" d="M 435.286 1586.51 C 477.298 1607.69 521.781 1616.22 567.463 1624.86 C 565.859 1631.93 564.564 1643.94 563.338 1651.68 C 550.06 1650.45 533.358 1647.56 519.865 1645.61 C 490.3 1641.08 460.655 1637.09 430.946 1633.63 C 431.158 1618.55 433.532 1601.65 435.286 1586.51 z"/>
<path transform="translate(0,0)" fill="rgb(251, 191, 36)" d="M 970.491 1777.36 C 972.588 1777.29 971.54 1777.17 973.592 1778.34 C 978.305 1790.82 978.982 1895.52 979.429 1915.2 C 974.113 1913.95 969.492 1913.5 964.104 1912.88 C 964.224 1900.38 967.26 1867.75 957.838 1858.76 C 938.843 1854.77 956.308 1904.36 945.122 1911.63 L 933.074 1909.39 C 931.987 1867.33 931.162 1825.27 930.6 1783.2 L 944.986 1781.89 C 944.955 1790.07 942.76 1838.52 955.669 1835.3 C 967.046 1822.12 956.77 1794.84 961.296 1779.36 C 963.874 1777.53 967.194 1777.67 970.491 1777.36 z"/>
<path transform="translate(0,0)" fill="rgb(251, 191, 36)" d="M 900.876 1788.08 L 915.029 1788.18 C 915.508 1827.33 918.23 1867.72 919.065 1907.25 L 903.306 1906.91 C 904.248 1897.77 907.081 1860.86 894.498 1859.48 C 892.949 1860.16 890.438 1861.13 889.618 1862.5 C 885.689 1869.03 888.665 1894.46 889.154 1901.63 C 883.495 1903.92 880.931 1905.75 876.111 1901.84 C 869.961 1888.29 870.961 1811.23 871.006 1792.89 C 875.719 1792.66 880.434 1792.49 885.151 1792.37 C 884.575 1812.82 881.505 1822.9 895.562 1837.96 C 905.473 1821 902.564 1806.94 900.876 1788.08 z"/>
<path transform="translate(0,0)" fill="rgb(251, 191, 36)" d="M 1783.6 357.073 C 1786.52 360.451 1788.09 364.603 1790 368.701 C 1780.58 373.014 1749.23 387.021 1750.45 397.996 L 1752.59 399.376 C 1764.21 400.609 1784.2 388.031 1793.84 381.837 C 1796.11 386.055 1798.11 390.641 1800.11 395.01 C 1777.85 405.568 1756.12 418.235 1734.43 429.871 C 1725.98 434.401 1705.73 446.276 1697.64 448.616 L 1695.07 446.424 C 1693.6 444.454 1693.53 444.186 1692.52 441.922 C 1695.15 428.44 1732.2 425.424 1730.98 411.232 C 1723.06 400.623 1691.05 423.012 1683.08 428.62 L 1674.21 417.125 C 1708.21 398.049 1749.29 374.445 1783.6 357.073 z"/>
<path transform="translate(0,0)" fill="rgb(255, 255, 255)" d="M 682.495 532.487 L 683.626 532.958 C 682.506 536.968 671.735 560.925 669.251 565.929 C 662.038 580.463 652.858 604.98 644.616 618.009 C 641.041 611.01 636.939 601.116 633.615 593.755 L 606.043 532.498 C 637.676 536.038 651.289 536.416 682.495 532.487 z"/>
<path transform="translate(0,0)" fill="rgb(251, 191, 36)" d="M 1801.27 408.757 L 1802.74 408.901 C 1805.44 411.278 1806.26 415.056 1807.47 418.575 C 1798.44 426.063 1773.85 434.014 1774.29 446.568 L 1775.88 448.053 C 1786.67 449.382 1801.39 438.955 1811.95 434.296 L 1817.42 445.176 C 1807.41 450.706 1735.51 493.549 1728.17 490.114 C 1725.41 486.638 1724.8 487.133 1724.84 483.722 C 1728.87 477.503 1741.21 474.004 1749.35 468.627 L 1750.59 467.794 C 1752.32 464.461 1753.33 462.969 1754.01 459.226 C 1752.9 455.823 1753.93 457.08 1750.79 455.341 C 1740.18 454.915 1724.4 465.278 1714.91 470.804 L 1707 460.482 C 1714.8 455.325 1730.76 447.268 1739.36 442.596 C 1760.06 431.423 1780.69 420.143 1801.27 408.757 z"/>
<path transform="translate(0,0)" fill="rgb(255, 255, 255)" d="M 1181.12 1867.49 C 1201.62 1867.47 1203.5 1868.26 1205.21 1889.2 C 1217.63 1888.65 1261.49 1884.52 1268.71 1894.95 L 1268.27 1896.99 C 1262.08 1900.02 1236.16 1900.38 1228.24 1900.7 C 1199.2 1901.26 1170.16 1901.97 1141.13 1902.85 C 1141.09 1891.88 1140.35 1880.06 1139.87 1869.05 L 1181.12 1867.49 z"/>
<path transform="translate(0,0)" fill="rgb(51, 65, 85)" d="M 494.922 521.12 C 502.711 525.29 528.411 545.47 531.713 553.125 C 552.713 601.8 560.363 633.19 613.38 656.441 C 602.383 663.23 598.998 665.92 590.14 675.315 L 588.736 675.23 C 580.47 662.115 567.588 650.107 556.634 638.96 C 555.83 628.535 550.186 609.808 546.099 600.007 C 529.636 560.525 502.614 547.414 466.279 531.441 C 473.607 529.464 486.551 523.938 494.922 521.12 z"/>
<path transform="translate(0,0)" fill="rgb(255, 255, 255)" d="M 1230.62 1776.5 C 1240.63 1775.8 1258.67 1772.7 1264.99 1782.12 C 1261.18 1794.74 1215.59 1782.35 1205.82 1790.39 C 1200.92 1794.42 1200.78 1804.31 1200.48 1810.29 C 1190.7 1810.81 1180.56 1810.83 1170.75 1810.99 C 1159.83 1811.24 1148.92 1811.62 1138.01 1812.12 L 1137.98 1780.04 C 1168.52 1778.34 1199.91 1777.97 1230.62 1776.5 z"/>
<path transform="translate(0,0)" fill="rgb(51, 65, 85)" d="M 638.492 170.363 C 669.387 165.669 690.748 182.588 710.761 203.457 C 690.288 200.887 674.425 199.828 653.75 199.117 C 631.554 198.718 602.285 199.376 580.773 203.491 C 594.91 181.764 613.693 173.61 638.492 170.363 z"/>
<path transform="translate(0,0)" fill="rgb(51, 65, 85)" d="M 561.148 496.057 L 563.403 495.977 C 568.247 498.598 607.655 584.011 614.013 597.258 C 607.366 590.46 598.287 582.757 591.085 576.309 C 568.414 553.071 544.444 531.136 519.289 510.611 C 532.58 505.146 547.469 500.5 561.148 496.057 z"/>
<path transform="translate(0,0)" fill="rgb(51, 65, 85)" d="M 722.813 494.459 C 737.59 499.188 753.114 504.065 767.371 510.086 C 745.831 532.09 725.729 551.197 703.318 572.301 C 695.091 580.182 686.714 587.906 678.193 595.468 C 692.869 569.774 712.952 521.689 722.813 494.459 z"/>
<path transform="translate(0,0)" fill="rgb(201,50,49)" d="M 635.567 290.417 C 647.465 289.613 656.156 289.95 667.951 291.21 C 642.484 311.994 622.561 314.894 591.163 317.916 C 580.052 317.982 567.953 318.697 556.77 319.149 L 556.838 298.401 C 573.589 294.185 616.957 291.792 635.567 290.417 z"/>
<path transform="translate(0,0)" fill="rgb(251, 191, 36)" d="M 839.459 1799.46 C 845.353 1798.72 849.505 1797.4 854.38 1800.87 C 858.726 1806.97 857.65 1883.21 858.964 1896.22 C 859.232 1898.88 858.305 1899.47 856.608 1900.78 L 844.15 1901.18 C 837.693 1883.17 838.505 1825.82 837.034 1804.11 C 836.821 1800.96 837.752 1800.85 839.459 1799.46 z"/>
<path transform="translate(0,0)" fill="rgb(201,50,49)" d="M 670.666 669.853 C 673.267 670.414 677.249 673.064 679.568 674.639 C 698.654 687.594 704.311 706.496 708.438 727.846 L 694.807 731.165 C 691.8 731.658 685.75 732.927 683.677 731.151 C 671.166 720.431 660.419 693.091 656.996 678.229 C 663.479 675.713 665.619 674.64 670.666 669.853 z"/>
<path transform="translate(0,0)" fill="rgb(51, 65, 85)" d="M 342.712 892.215 C 345.609 897.504 346.674 916.442 347.266 923.397 C 327.706 927.256 309.264 930.882 289.504 933.428 C 287.297 927.588 285.434 916.972 284.503 910.787 C 294.678 906.487 332.051 893.7 342.712 892.215 z"/>
<path transform="translate(0,0)" fill="rgb(251, 191, 36)" d="M 1820.57 458.887 C 1823.46 462.205 1825.32 468.804 1826.79 473.117 C 1812.97 481.191 1761.14 512.114 1747.31 515.407 L 1738.11 504.143 C 1765.15 488.937 1793.3 473.939 1820.57 458.887 z"/>
<path transform="translate(0,0)" fill="url(#Gradient1)" d="M 327.958 823.583 C 264.168 817.064 274.536 755.716 305.566 719.339 C 296.174 747.539 283.656 787.989 311.73 810.397 C 316.958 814.57 323.773 817.481 329.833 820.328 L 327.958 823.583 z"/>
<path transform="translate(0,0)" fill="rgb(51, 65, 85)" d="M 676.396 1209.42 C 678.746 1210.79 680.276 1212.95 681.586 1215.31 C 695.72 1240.78 697.984 1267.32 690.867 1294.81 C 689.801 1296.29 690.487 1295.67 688.739 1296.59 C 684.299 1284.76 675.171 1220.88 676.396 1209.42 z"/>
<path transform="translate(0,0)" fill="rgb(51, 65, 85)" d="M 440.048 606.997 C 444.678 607.015 457.085 611.333 461.851 612.87 C 441.573 619.181 431.353 626.041 415.065 638.744 L 401.409 650.561 C 405.894 619.005 411.054 617.057 440.048 606.997 z"/>
<path transform="translate(0,0)" fill="rgb(201,50,49)" d="M 621.812 670.205 C 626.883 674.612 630.1 676.088 636.323 678.286 C 634.964 684.432 628.497 709.159 622.995 711.733 L 620.401 710.332 C 613.201 703.923 606.635 696.836 600.793 689.169 C 607.139 681.234 613.836 676.382 621.812 670.205 z"/>
<path transform="translate(0,0)" fill="rgb(201,50,49)" d="M 679.042 292.296 C 696.487 292.347 714.451 295.008 731.768 297.31 C 731.999 304.127 732.646 311.636 733.097 318.5 C 708.638 312.473 697.972 311.44 679.042 292.296 z"/>
<path transform="translate(0,0)" fill="rgb(201,50,49)" d="M 728.588 578.867 C 729.554 586.846 713.879 609.718 708.081 615.972 C 699.227 625.525 686.507 634.454 673.891 637.947 L 673.167 634.498 C 674.18 628.837 720.411 586.648 728.588 578.867 z"/>
<path transform="translate(0,0)" fill="rgb(255, 255, 255)" d="M 1280.7 1798.87 C 1283.56 1800.29 1286.88 1801.14 1289.96 1802.08 C 1291.26 1823.39 1293.34 1855.33 1290.54 1875.83 C 1283.99 1874.18 1282.95 1868.55 1282.25 1862.25 C 1279.95 1841.66 1280.36 1819.48 1280.7 1798.87 z"/>
<path transform="translate(0,0)" fill="rgb(201,50,49)" d="M 564.747 581.649 C 568.009 583.576 573.239 588.472 576.005 591.279 C 589.972 605.452 606.038 618.423 618.857 633.51 C 618.857 633.51 619.138 637.728 619.166 638.148 C 615.547 638.057 610.688 634.998 607.376 633.363 C 585.463 622.543 574.976 602.81 564.747 581.649 z"/>
<path transform="translate(0,0)" fill="rgb(201,50,49)" d="M 633.871 640.398 C 642.663 640.017 649.697 640.076 658.512 640.333 C 659.723 647.58 661.855 655.88 655.8 661.356 C 639.891 664.091 624.188 660.353 633.871 640.398 z"/>
<path transform="translate(0,0)" fill="rgb(251, 191, 36)" fill-opacity="0.0117647" d="M 977.998 470.37 C 997.925 461.28 1032.86 444.862 1052.61 438.477 C 1036.26 450.926 1000.44 469.287 981.225 481.976 C 981.37 480.492 981.336 479.153 981.35 477.659 C 979.616 475.015 978.213 473.499 977.998 470.37 z"/>
<path transform="translate(0,0)" fill="rgb(251, 191, 36)" d="M 425.986 1453.07 C 428.205 1456.8 427.407 1470.96 427.358 1476.25 L 413.452 1469.13 L 404.928 1464.99 C 412.727 1460.08 417.752 1457.07 425.986 1453.07 z"/>
<path transform="translate(0,0)" fill="rgb(51, 65, 85)" d="M 646.102 701.68 C 648.147 704.971 657.165 724.63 656.956 727.924 L 654.554 728.055 C 647.832 726.025 645.944 725.372 639.713 722.106 C 641.953 715.333 644.083 708.523 646.102 701.68 z"/>
<path transform="translate(0,0)" fill="rgb(45, 212, 191)" d="M 651.687 1211.72 C 648.77 1205.77 640.147 1182.38 645.49 1177.51 C 650.723 1181.4 652.687 1197.72 653.389 1204.06 C 653.73 1207.99 654.449 1212.47 653.565 1216.22 C 652.172 1213.71 652.389 1214.45 651.687 1211.72 z"/>
<path transform="translate(0,0)" fill="rgb(245, 158, 11)" d="M 653.389 1204.06 C 653.73 1207.99 654.449 1212.47 653.565 1216.22 C 652.172 1213.71 652.389 1214.45 651.687 1211.72 C 652.767 1209.38 652.952 1206.7 653.389 1204.06 z"/>
<path transform="translate(0,0)" fill="rgb(245, 158, 11)" d="M 890.18 554.998 C 895.919 560.54 882.156 571.388 878.348 573.824 C 873.422 561.671 880.577 560.312 890.18 554.998 z"/>
<path transform="translate(0,0)" fill="rgb(251, 191, 36)" fill-opacity="0.0117647" d="M 1608.7 153.745 C 1615.37 161.686 1620.37 171.117 1627.76 179.83 L 1625.09 182.067 L 1623.85 181.911 C 1622.46 181.746 1622.97 181.648 1622.19 181.878 C 1618.4 177.346 1610.89 159.556 1608.7 153.745 z"/>
<path transform="translate(0,0)" fill="rgb(251, 191, 36)" fill-opacity="0.0156863" d="M 1619.61 149.578 C 1624.96 154.078 1634.38 164.292 1636.53 170.893 L 1636.15 174.913 C 1634.43 175.876 1634.6 175.92 1632.74 176.466 C 1630.53 166.099 1624.83 160.228 1619.61 149.578 z"/>
<path transform="translate(0,0)" fill="rgb(217, 119, 6)" d="M 328.015 687.435 C 331.238 689.39 330.166 688.048 331.394 691.557 C 330.054 697.317 323.251 701.343 318.482 704.805 L 316.817 704.898 C 316.886 700.49 325.045 691.23 328.015 687.435 z"/>
<path transform="translate(0,0)" fill="rgb(255, 255, 255)" d="M 1236.55 1872.79 C 1248.05 1870.7 1250.95 1870.51 1262.54 1871.79 L 1263.57 1872.56 C 1255.45 1875.49 1245.05 1875.23 1236.46 1875.31 L 1236.55 1872.79 z"/>
<path transform="translate(0,0)" fill="rgb(251, 191, 36)" fill-opacity="0.0156863" d="M 1597.5 160.657 C 1602.02 166.718 1606.48 172.665 1610.77 178.884 C 1611.76 184.022 1612.56 184.505 1608.96 188.313 C 1607.47 183.094 1600.06 167.393 1597.5 160.657 z"/>
<path transform="translate(0,0)" fill="rgb(217, 119, 6)" d="M 1414.03 415.053 C 1418.63 416.715 1438.85 423.822 1440.79 426.631 C 1435.39 427.288 1419.32 418.254 1412.57 416.3 L 1414.03 415.053 z"/>
<path transform="translate(0,0)" fill="rgb(255, 255, 255)" fill-opacity="0.027451" d="M 1589.39 199.822 C 1585.41 195.373 1582.2 185.962 1580.95 180.123 C 1584.93 186.211 1588.24 191.986 1591.86 198.298 L 1589.39 199.822 z"/>
<path transform="translate(0,0)" fill="rgb(217, 119, 6)" d="M 492.126 1034.71 C 494.925 1037.76 496.574 1047.04 497.58 1051.49 C 491.622 1048 491.679 1040.67 492.126 1034.71 z"/>
<path transform="translate(0,0)" fill="rgb(245, 158, 11)" d="M 1842.39 1148.77 C 1842.05 1151.29 1840.96 1160.46 1839.61 1161.71 C 1838.97 1154.88 1840.11 1146.59 1840.81 1139.63 C 1841.03 1142.63 1840.91 1146.34 1842.39 1148.77 z"/>
<path transform="translate(0,0)" fill="rgb(217, 119, 6)" d="M 1000.9 1508.95 C 996.507 1506.89 994.466 1506.13 990.637 1503.12 L 991.209 1502.47 L 992.226 1504.56 L 993.285 1503.12 C 996.138 1504.37 998.663 1505.94 1001.38 1507.49 L 1000.9 1508.95 z"/>
<path transform="translate(0,0)" fill="rgb(217, 119, 6)" d="M 1268.26 1658.05 C 1271.23 1658.06 1275.52 1657.63 1277.75 1659.16 C 1274.34 1660.44 1273.46 1660.39 1269.93 1660.68 C 1269.55 1658.77 1269.87 1659.7 1268.26 1658.05 z"/>
<path transform="translate(0,0)" fill="rgb(255, 255, 255)" fill-opacity="0.0352941" d="M 1266.28 1600.64 C 1269.33 1601.78 1269.67 1601.68 1272.83 1601.96 L 1273.71 1602.78 C 1269.2 1603.08 1268.09 1603.08 1263.64 1602.39 L 1263.4 1601.31 L 1266.28 1600.64 z"/>
<path transform="translate(0,0)" fill="rgb(217, 119, 6)" d="M 1033.47 515.526 L 1034.23 517.491 C 1031.83 518.585 1032.52 518.313 1029.9 518.779 L 1029.98 517.745 L 1033.47 515.526 z"/>
<path transform="translate(0,0)" fill="rgb(217, 119, 6)" d="M 329.833 820.328 L 333.166 822.215 L 332.681 823.137 L 327.958 823.583 L 329.833 820.328 z"/>
<path transform="translate(0,0)" fill="rgb(217, 119, 6)" d="M 1746.24 886.986 C 1745.92 884.417 1745.63 885.593 1746.62 883.341 L 1747.94 885.499 L 1746.24 886.986 z"/>
<path transform="translate(0,0)" fill="rgb(58, 173, 173)" d="M 1852.19 1628.06 L 1910.98 1628.18 C 1909.94 1674.74 1911.41 1721.61 1910.92 1768.21 C 1910.79 1781.03 1910.95 1794.41 1911.68 1807.17 C 1915.68 1810.76 1919.35 1813.47 1923.62 1816.67 C 1924.35 1828.14 1923.73 1854.46 1923.16 1865.8 C 1894.42 1868.53 1870.79 1873.53 1861.41 1839.41 C 1858.89 1842.47 1856.26 1845.44 1853.52 1848.3 C 1837.93 1864.76 1825.65 1867.12 1804.06 1867.71 C 1755.02 1863.03 1730.83 1836.11 1726.34 1787.31 C 1722.04 1740.69 1745.17 1695.47 1795.83 1691.82 C 1823.23 1689.84 1833.66 1697.16 1853.23 1714.27 C 1850.64 1690.83 1852.4 1652.99 1852.19 1628.06 z M 1823.39 1817.28 C 1836.76 1813.39 1842.65 1810.98 1851.63 1799.28 C 1854.12 1776.21 1851.37 1739.38 1819.6 1740.34 C 1775.73 1745.63 1775.18 1817.44 1823.39 1817.28 z"/>
<path transform="translate(0,0)" fill="rgb(58, 173, 173)" d="M 1619.36 1692.26 L 1620.99 1692.19 C 1643.3 1691.23 1665.49 1696 1682.18 1711.69 C 1733.14 1759.61 1713.62 1865.81 1634.6 1867.32 C 1611.29 1867.76 1597.31 1859.34 1580.94 1843.71 C 1581.56 1861.32 1581.49 1880.05 1581.73 1897.75 L 1582.05 1931.14 C 1568.63 1929.22 1536.95 1930.31 1522.56 1930.87 C 1520.05 1853.39 1523.84 1772.15 1521.66 1694.08 C 1539.14 1694.2 1556.63 1694.22 1574.12 1694.13 C 1574.18 1702.43 1574.12 1710.72 1573.94 1719 C 1588.96 1700.68 1595.8 1696 1619.36 1692.26 z M 1619.48 1817.72 C 1662.31 1808.56 1656.17 1737.47 1609.83 1741.04 C 1557.51 1758.04 1583.51 1820.42 1619.48 1817.72 z"/>
<path transform="translate(0,0)" fill="rgb(15, 23, 42)" fill-opacity="0.0117647" d="M 302.179 1512.5 C 303.971 1514.3 303.3 1513.24 303.703 1516 C 302.418 1519.27 299.472 1521.07 296.649 1523.33 C 295.053 1520.04 295.319 1521.68 295.482 1518.28 C 297.589 1515.04 298.945 1514.53 302.179 1512.5 z"/>
<path transform="translate(0,0)" fill="rgb(251, 191, 36)" fill-opacity="0.156863" d="M 1867.42 881.304 C 1867.98 884.843 1868.63 886.728 1867.4 890.082 C 1865.44 887.933 1865.94 887.035 1865.39 883.553 L 1866.29 883.312 L 1867.42 881.304 z"/></svg>